<svg xmlns="http://www.w3.org/2000/svg" xmlns:xlink="http://www.w3.org/1999/xlink" width="16" height="16" viewBox="0 0 16 16">
  <defs>
    <clipPath id="clip-safari-pinned-tab">
      <rect width="16" height="16"/>
    </clipPath>
  </defs>
  <g id="safari-pinned-tab" clip-path="url(#clip-safari-pinned-tab)">
    <rect width="16" height="16" fill="#fff"/>
    <path id="路径_33" data-name="路径 33" d="M289.785,113.871c-.144,0-.29-.1-.458-.318a.829.829,0,0,1-.206-.466.51.51,0,0,1,.162-.323c.1-.1.24-.26.417-.467a10.62,10.62,0,0,0,.827-1.2c.051-.081.1-.159.151-.237-.36.056-.71.112-1.043.167a8.063,8.063,0,0,1-.919.151.539.539,0,0,1-.467-.311.873.873,0,0,1-.187-.473.335.335,0,0,1,.117-.277l.014-.01a.547.547,0,0,1,.284-.068c.239,0,.511-.013.807-.04.123,0,.756-.071,1.892-.209l.209-.024c.091-.152.19-.3.286-.453.109-.181.221-.365.327-.531l-.6.093-.816.125c-.291.042-.521.079-.7.115a.809.809,0,0,1-.394.1.127.127,0,0,1-.031,0,.566.566,0,0,1-.493-.57.841.841,0,0,1,.189-.56.125.125,0,0,1,.091-.044c.262-.01.5-.032.671-.049.751-.072,1.481-.153,2.232-.249.929-.108,1.612-.184,2.149-.24.359-.039.66-.066.9-.079v0a1.228,1.228,0,0,0-.1-.1,4.978,4.978,0,0,0-.6-.471,1,1,0,0,1-.3-.207.245.245,0,0,1-.058-.169.542.542,0,0,1,.052-.216h-.176a.718.718,0,0,1-.247-.046h0c-.129.207-.241.407-.336.6a1.289,1.289,0,0,0-.158.441.125.125,0,0,1-.124.107h-.017c-.582-.078-.877-.342-.877-.783a1.114,1.114,0,0,1,.251-.52,10.908,10.908,0,0,1,.95-1.232c.07-.08.151-.162.238-.248a.425.425,0,0,1,.323-.191.569.569,0,0,1,.477.2.554.554,0,0,1,.167.368.364.364,0,0,1-.164.323c-.025.02-.049.039-.07.059.187-.02.4-.051.656-.1a7.108,7.108,0,0,1,1.07-.142.63.63,0,0,1,.458.2l.009.01a.593.593,0,0,1,.157.368.493.493,0,0,1-.143.375.44.44,0,0,1-.361.159l-.169-.009c-.106-.006-.187-.011-.24-.011-.138,0-.317.009-.536.027.118.085.283.2.49.356.037.022.084.05.122.069a.125.125,0,0,1,.032.023.438.438,0,0,0,.052.045.126.126,0,0,1,.055.1,1.224,1.224,0,0,1-.044.31.544.544,0,0,1-.332.368.67.67,0,0,1,.32.364.123.123,0,0,1,.006.037c0,.274-.035.394-.129.441a.129.129,0,0,1-.042.013l-.086.01c-.171.019-.383.044-.648.061-.484.039-1.022.1-1.6.171a3.049,3.049,0,0,1-.292.376c-.109.127-.284.368-.484.666.774-.073,1.644-.154,2.6-.235l.027,0a1.6,1.6,0,0,0,.217-.034l.016-.007a.6.6,0,0,1,.189-.026,1.575,1.575,0,0,1,.623.2l.016.009a.77.77,0,0,1,.394.565.144.144,0,0,1,0,.015c-.019.359-.529.41-.911.418l-.314-.009c-.213-.006-.376-.011-.487-.011-.575,0-1.391.046-2.495.139l-.257.026c.184.149.436.33.745.534a15.048,15.048,0,0,0,1.8,1.009,5.846,5.846,0,0,0,1.237.467c.046,0,.086,0,.119.007l.049,0a.436.436,0,0,1,.176.029l.016.008a.668.668,0,0,1,.392.531.484.484,0,0,1-.235.431.923.923,0,0,1-.478.121,5.154,5.154,0,0,1-1.815-.693,13.74,13.74,0,0,1-2.174-1.329c-.241-.189-.421-.343-.549-.457a18.848,18.848,0,0,0-1.087,1.766l-.007.014c-.125.212-.238.388-.345.538A.489.489,0,0,1,289.785,113.871Zm-.9-6.169h-.019c-.74-.111-.895-.5-.895-.812,0-.09.048-.222.28-.577a14.886,14.886,0,0,1,1.059-1.411l.272-.292a.476.476,0,0,1,.351-.21.629.629,0,0,1,.482.2.546.546,0,0,1,.182.383.381.381,0,0,1-.178.336.784.784,0,0,0-.111.1c.165-.021.352-.05.563-.086a6.739,6.739,0,0,1,1.089-.161.582.582,0,0,1,.452.191.6.6,0,0,1,.162.373.466.466,0,0,1-.141.353.422.422,0,0,1-.364.171c-.11,0-.2,0-.274-.007l-.115,0a6.248,6.248,0,0,0-.707.056c.094.074.219.178.379.312.015.011.033.026.05.041l.034.028a.185.185,0,0,1,.121.157,1.227,1.227,0,0,1-.044.31.516.516,0,0,1-.229.322.716.716,0,0,1-.391.092.222.222,0,0,1-.188-.116l-.09-.09a5.042,5.042,0,0,0-.5-.436,1.352,1.352,0,0,1-.235-.173.244.244,0,0,1-.067-.179.513.513,0,0,1,.046-.2h-.08a.689.689,0,0,1-.164-.02,8.3,8.3,0,0,0-.413.73,1.47,1.47,0,0,0-.187.518.125.125,0,0,1-.124.11Z" transform="translate(-284.47 -101.125)"/>
  </g>
</svg>
